<svg width="800" height="800" viewBox="0 0 800 800" fill="none" xmlns="http://www.w3.org/2000/svg">
  <rect width="800" height="800" rx="72" fill="url(#bg)"/>
  <g filter="url(#shadow)">
    <rect x="280" y="160" width="240" height="480" rx="60" fill="#FEF9F2"/>
    <rect x="335" y="110" width="130" height="130" rx="32" fill="#F0CB62"/>
    <rect x="350" y="90" width="100" height="40" rx="20" fill="#F5D67D"/>
    <rect x="305" y="250" width="190" height="260" rx="28" fill="#FFE5B2"/>
    <rect x="325" y="290" width="150" height="120" rx="22" fill="#F0CB62" opacity="0.2"/>
    <path d="M320 460H480V500C480 524.3 460.3 544 436 544H364C339.699 544 320 524.3 320 500V460Z" fill="#F0CB62" opacity="0.25"/>
    <rect x="335" y="590" width="130" height="32" rx="16" fill="#F0CB62" opacity="0.35"/>
  </g>
  <text x="400" y="650" text-anchor="middle" font-family="'Inter', 'Helvetica Neue', Arial" font-size="44" fill="#4A3210" font-weight="600">Bio-Active</text>
  <text x="400" y="694" text-anchor="middle" font-family="'Inter', 'Helvetica Neue', Arial" font-size="26" fill="#7B531D">Serum</text>
  <defs>
    <linearGradient id="bg" x1="120" y1="80" x2="720" y2="720" gradientUnits="userSpaceOnUse">
      <stop stop-color="#FFF4D9"/>
      <stop offset="0.5" stop-color="#FFE3A8"/>
      <stop offset="1" stop-color="#F5C96B"/>
    </linearGradient>
    <filter id="shadow" x="220" y="60" width="360" height="600" filterUnits="userSpaceOnUse" color-interpolation-filters="sRGB">
      <feDropShadow dx="0" dy="20" stdDeviation="28" flood-color="#C7A446" flood-opacity="0.28"/>
    </filter>
  </defs>
</svg>
