<svg width="800" height="800" viewBox="0 0 800 800" fill="none" xmlns="http://www.w3.org/2000/svg">
  <rect width="800" height="800" rx="72" fill="url(#bg)"/>
  <g filter="url(#shadow)">
    <rect x="260" y="160" width="280" height="440" rx="48" fill="#FFFFFF"/>
    <rect x="250" y="120" width="300" height="80" rx="26" fill="#FF8A8A"/>
    <rect x="300" y="100" width="200" height="40" rx="18" fill="#F55353"/>
    <rect x="275" y="240" width="250" height="180" rx="32" fill="#FFE3E3"/>
    <path d="M280 370H520V420C520 450 495 475 463 475H337C305 475 280 450 280 420V370Z" fill="#FF8A8A" opacity="0.18"/>
    <rect x="300" y="540" width="200" height="32" rx="16" fill="#FF8A8A" opacity="0.3"/>
  </g>
  <text x="400" y="640" text-anchor="middle" font-family="'Inter', 'Helvetica Neue', Arial" font-size="40" fill="#781B1B" font-weight="600">DMEM</text>
  <text x="400" y="684" text-anchor="middle" font-family="'Inter', 'Helvetica Neue', Arial" font-size="26" fill="#A12727">High Glucose</text>
  <defs>
    <linearGradient id="bg" x1="120" y1="80" x2="720" y2="720" gradientUnits="userSpaceOnUse">
      <stop stop-color="#FFF0F0"/>
      <stop offset="0.55" stop-color="#FFC8C8"/>
      <stop offset="1" stop-color="#FF8A8A"/>
    </linearGradient>
    <filter id="shadow" x="200" y="80" width="400" height="580" filterUnits="userSpaceOnUse" color-interpolation-filters="sRGB">
      <feDropShadow dx="0" dy="22" stdDeviation="26" flood-color="#781B1B" flood-opacity="0.18"/>
    </filter>
  </defs>
</svg>
